HIERARCHY
ROOT root
{
	OFFSET 0.000000 0.000000 0.000000
	CHANNELS 6 Xposition Yposition Zposition Zrotation Yrotation Xrotation
	JOINT lhip
	{
		OFFSET 0.058581 -0.082280 -0.017664
		CHANNELS 3 Zrotation Yrotation Xrotation
		JOINT lknee
		{
			OFFSET 0.043451 -0.386469 0.008037
			CHANNELS 3 Zrotation Yrotation Xrotation
			JOINT lankle
			{
				OFFSET -0.014790 -0.426874 -0.037428
				CHANNELS 3 Zrotation Yrotation Xrotation
				JOINT ltoe
				{
					OFFSET 0.041054 -0.060286 0.122042
					CHANNELS 3 Zrotation Yrotation Xrotation
					End Site
					{
						OFFSET 0.000000 0.000000 0.000000
					}
				}
			}
		}
	}
	JOINT rhip
	{
		OFFSET -0.060310 -0.090513 -0.013543
		CHANNELS 3 Zrotation Yrotation Xrotation
		JOINT rknee
		{
			OFFSET -0.043257 -0.383688 -0.004843
			CHANNELS 3 Zrotation Yrotation Xrotation
			JOINT rankle
			{
				OFFSET 0.019056 -0.420046 -0.034562
				CHANNELS 3 Zrotation Yrotation Xrotation
				JOINT rtoe
				{
					OFFSET -0.034840 -0.062106 0.130323
					CHANNELS 3 Zrotation Yrotation Xrotation
					End Site
					{
						OFFSET 0.000000 0.000000 0.000000
					}
				}
			}
		}
	}
	JOINT lowerback
	{
		OFFSET 0.004439 0.124404 -0.038385
		CHANNELS 3 Zrotation Yrotation Xrotation
		JOINT upperback
		{
			OFFSET 0.004488 0.137956 0.026820
			CHANNELS 3 Zrotation Yrotation Xrotation
			JOINT chest
			{
				OFFSET -0.002265 0.056032 0.002855
				CHANNELS 3 Zrotation Yrotation Xrotation
				JOINT lowerneck
				{
					OFFSET -0.013390 0.211636 -0.033468
					CHANNELS 3 Zrotation Yrotation Xrotation
					JOINT upperneck
					{
						OFFSET 0.010113 0.088937 0.050410
						CHANNELS 3 Zrotation Yrotation Xrotation
						End Site
						{
							OFFSET 0.000000 0.000000 0.000000
						}
					}
				}
				JOINT lclavicle
				{
					OFFSET 0.071702 0.114000 -0.018898
					CHANNELS 3 Zrotation Yrotation Xrotation
					JOINT lshoulder
					{
						OFFSET 0.122921 0.045205 -0.019046
						CHANNELS 3 Zrotation Yrotation Xrotation
						JOINT lelbow
						{
							OFFSET 0.255332 -0.015649 -0.022946
							CHANNELS 3 Zrotation Yrotation Xrotation
							JOINT lwrist
							{
								OFFSET 0.265709 0.012698 -0.007375
								CHANNELS 3 Zrotation Yrotation Xrotation
								End Site
								{
									OFFSET 0.000000 0.000000 0.000000
								}
							}
						}
					}
				}
				JOINT rclavicle
				{
					OFFSET -0.082954 0.112472 -0.023707
					CHANNELS 3 Zrotation Yrotation Xrotation
					JOINT rshoulder
					{
						OFFSET -0.113228 0.046853 -0.008472
						CHANNELS 3 Zrotation Yrotation Xrotation
						JOINT relbow
						{
							OFFSET -0.260127 -0.014369 -0.031269
							CHANNELS 3 Zrotation Yrotation Xrotation
							JOINT rwrist
							{
								OFFSET -0.269108 0.006794 -0.006027
								CHANNELS 3 Zrotation Yrotation Xrotation
								End Site
								{
									OFFSET 0.000000 0.000000 0.000000
								}
							}
						}
					}
				}
			}
		}
	}
}
MOTION
Frames: 10
Frame Time: 0.033333
0.067561 0.341962 0.989565 -87.618499 3.532338 99.180351 2.850338 -1.308336 -1.083638 -3.336615 -14.120445 6.888721 5.442618 20.251514 -15.926302 0.000000 -0.000000 0.000000 3.436915 2.919321 -6.291448 4.293072 3.441884 9.964687 2.761906 -12.995399 -11.324226 0.000000 -0.000000 0.000000 -2.494631 2.242163 -3.898603 3.053251 -1.646624 12.628433 0.156320 1.542109 -3.558265 -0.653311 -11.074576 2.944634 5.463051 -0.484989 -4.082796 -22.309298 -6.090122 2.470050 -63.169124 4.524101 22.891867 13.737503 -26.382680 24.690871 10.659461 -2.676027 4.859913 19.428953 4.905348 -2.548495 63.322299 -3.779227 17.619146 -9.482267 33.141312 23.845638 -15.325089 3.851280 -8.073596 
0.066188 0.341078 0.989135 -87.604112 3.357750 99.264452 2.699896 -1.447524 -0.892721 -3.277783 -14.038925 6.640600 5.343647 19.933750 -16.093832 0.000000 -0.000000 0.000000 3.377039 2.887531 -6.353599 4.141196 3.040393 10.275091 2.487067 -13.169110 -11.821840 0.000000 -0.000000 0.000000 -2.605380 2.016190 -3.490799 2.932371 -1.964572 12.391397 0.062760 1.475980 -3.790791 -0.943573 -11.060239 2.945708 5.622046 -0.201825 -3.299218 -22.507475 -6.682679 2.631874 -63.026510 2.857924 23.236848 13.718368 -29.075559 24.640085 10.942195 -2.992718 5.337237 19.736261 5.605083 -2.192265 63.138053 -2.069889 18.179767 -9.076669 35.042427 24.752143 -15.618889 4.134216 -7.156863 
0.064830 0.339551 0.987806 -87.412036 3.298437 99.465054 2.665624 -1.371684 -0.818860 -3.192040 -14.183788 6.367987 5.197891 19.529936 -16.520459 0.000000 -0.000000 0.000000 3.325291 2.386191 -5.959117 4.133671 2.640888 9.654301 2.325125 -13.347219 -12.120323 0.000000 -0.000000 0.000000 -2.302778 1.822528 -3.250010 2.774927 -2.335859 12.073433 -0.106428 1.376343 -3.818052 -1.373756 -11.275664 2.863106 5.674829 0.087308 -2.690145 -22.960093 -7.319439 2.652096 -62.573503 1.001834 23.646640 13.437400 -31.807635 25.293782 11.151646 -3.184912 6.588377 19.864574 5.996429 -2.152828 63.044236 -0.501989 18.319682 -8.356846 37.348981 25.853185 -15.692202 4.303367 -6.065891 
0.063780 0.338026 0.985761 -87.372806 3.203370 99.851538 2.514434 -1.393268 -0.989922 -3.195728 -13.999372 6.222590 5.066950 19.317834 -17.154766 0.000000 -0.000000 0.000000 3.111451 2.148733 -5.956707 4.114780 2.387810 9.324810 2.470230 -13.272412 -12.897835 0.000000 -0.000000 0.000000 -2.190980 1.807099 -3.283826 2.693175 -2.532554 11.922506 -0.149762 1.321123 -3.993350 -1.755791 -11.461014 2.868460 5.783237 0.151042 -2.014979 -23.104629 -8.173773 2.704900 -62.765627 -1.159916 24.176481 13.701843 -34.119555 25.372385 11.233876 -3.495582 7.781631 19.885159 6.496755 -1.819457 63.065621 0.837181 18.419023 -8.127356 39.693753 26.469547 -16.076081 4.703833 -5.144987 
0.063030 0.336297 0.983488 -87.504671 3.273353 100.147347 2.373825 -1.419343 -1.162387 -3.078340 -13.707944 6.343461 4.861251 19.312800 -18.170496 0.000000 -0.000000 0.000000 3.058525 2.179880 -6.164182 4.011646 2.121227 9.447209 2.545284 -13.038820 -14.133032 0.000000 -0.000000 0.000000 -1.849309 1.787363 -3.001398 2.606901 -2.494673 11.734647 -0.249947 1.358485 -4.179498 -1.804305 -11.328753 2.646429 5.763658 0.024137 -1.532617 -23.135273 -8.632339 2.595693 -63.272006 -3.319307 24.634760 14.503580 -36.817047 25.357335 11.688772 -4.165093 9.229676 19.738727 6.987046 -1.532158 63.356032 2.066585 18.355220 -8.313531 41.893416 26.582374 -15.903342 5.317870 -4.342094 
0.062603 0.334675 0.980601 -87.757181 3.384370 100.432405 2.275116 -1.452117 -1.227665 -2.893001 -13.531299 6.233286 4.912987 19.509244 -19.454345 0.000000 -0.000000 0.000000 3.077130 2.237686 -6.721782 3.897026 1.877122 10.179087 2.477020 -12.956525 -15.475099 0.000000 -0.000000 0.000000 -1.627166 1.739926 -2.624802 2.611093 -2.387266 11.636858 -0.237825 1.474274 -4.299831 -1.815619 -11.186717 2.229708 5.735710 -0.158314 -1.322187 -23.182062 -8.781082 2.353459 -63.954676 -5.457531 24.895326 15.403102 -39.928115 24.312859 11.949411 -4.516383 10.355158 19.539749 7.545363 -1.397526 63.520092 3.392593 18.580704 -8.385256 43.583849 26.705161 -15.711317 5.518524 -4.074814 
0.061884 0.333155 0.977434 -88.074872 3.338518 100.680565 2.019733 -1.472072 -1.137658 -2.755280 -13.570238 5.915621 5.075032 19.753601 -20.517567 0.000000 -0.000000 0.000000 2.940976 2.252950 -7.020083 3.714158 1.577794 10.678995 2.451334 -12.964760 -16.779694 0.000000 -0.000000 0.000000 -1.696004 1.678985 -2.081208 2.631628 -2.360288 11.491554 -0.160497 1.576403 -4.507173 -1.845497 -10.936248 1.926958 5.735059 0.096360 -1.019365 -23.240426 -8.764958 2.159326 -64.274658 -7.220574 25.195337 15.826177 -43.307892 24.017698 12.198857 -4.628560 11.737861 19.593422 8.076960 -1.276343 63.371937 4.747262 19.129585 -8.172143 44.685860 27.133922 -15.463809 5.705060 -3.574037 
0.060941 0.331618 0.973833 -87.967905 3.254885 101.216576 1.820191 -1.713379 -1.500644 -2.710126 -13.794762 5.902007 5.293832 19.892522 -21.680254 0.000000 -0.000000 0.000000 2.852070 2.226711 -7.452330 3.565554 1.253636 10.964582 2.381119 -13.089226 -18.212619 0.000000 -0.000000 0.000000 -1.702695 1.618963 -1.837157 2.660050 -2.499005 11.358468 -0.130066 1.556164 -4.872744 -1.879448 -10.690171 1.986711 5.713089 0.060179 -0.654003 -22.904483 -8.900301 2.171430 -64.591383 -8.505561 25.597809 15.802307 -46.230739 24.312896 12.599112 -5.265919 12.874778 19.464643 8.568645 -1.124585 63.496500 5.703689 19.796503 -8.212193 45.342927 27.481340 -15.313250 5.946671 -3.896334 
0.059328 0.329515 0.970297 -87.674806 3.239307 101.682850 1.591551 -2.101955 -1.962434 -2.569335 -14.330839 6.343358 5.613147 20.283880 -23.200883 0.000000 -0.000000 0.000000 2.897809 2.281907 -8.120203 3.371569 0.966891 11.848140 2.210132 -13.611021 -19.864763 0.000000 -0.000000 0.000000 -1.400039 1.533327 -1.263410 2.634640 -2.471319 10.892371 -0.177489 1.475463 -5.020594 -1.851567 -10.584833 1.820291 5.628822 0.083781 -0.370859 -22.604056 -8.887489 2.115320 -64.670629 -9.527865 26.037781 15.195034 -48.661069 25.680520 12.951088 -6.156674 14.086574 19.180595 8.763005 -1.046493 63.747793 6.290591 20.143895 -8.456804 46.031243 27.790326 -15.099710 6.150568 -4.212346 
0.056628 0.327276 0.967298 -87.351658 3.356709 101.930797 1.386515 -2.554654 -2.428658 -2.484993 -14.879427 7.423130 5.782734 21.466285 -25.189952 0.000000 -0.000000 0.000000 3.108075 2.683389 -9.088424 3.074677 0.925371 13.870681 2.224105 -14.345718 -21.594323 0.000000 -0.000000 0.000000 -0.959743 1.414823 -0.491579 2.648466 -2.325362 10.603773 -0.247672 1.558916 -5.138143 -2.023334 -10.881262 1.513444 5.891266 0.071881 -0.306305 -22.783084 -8.900136 2.112997 -64.206540 -10.279377 26.387584 14.328490 -50.664327 27.213060 13.032353 -6.576465 14.585517 19.081187 8.820000 -1.016392 63.503353 6.422430 19.973561 -8.378629 46.885554 28.490720 -15.074316 6.482162 -4.184394 
